<svg xmlns="http://www.w3.org/2000/svg" xmlns:xlink="http://www.w3.org/1999/xlink" viewBox="0,0,256,256" width="512px" height="512px" fill-rule="nonzero"><g fill="#fcfcfc" fill-rule="nonzero" stroke="none" stroke-width="1" stroke-linecap="butt" stroke-linejoin="miter" stroke-miterlimit="10" stroke-dasharray="" stroke-dashoffset="0" font-family="none" font-weight="none" font-size="none" text-anchor="none" style="mix-blend-mode: normal"><g transform="scale(4,4)"><path d="M48.9707,2c-0.41975,0.01214 -0.7872,0.2852 -0.91992,0.68359c-0.12746,0.38239 -0.64369,0.97995 -1.60937,1.57422c-0.96569,0.59427 -2.32409,1.18656 -3.92187,1.73438c-3.19557,1.09562 -7.35133,2.02837 -11.44922,2.77344c-8.19578,1.49014 -16.16406,2.23828 -16.16406,2.23828c-0.51386,0.04843 -0.90646,0.47996 -0.90625,0.99609v13c0.0005,0.51335 0.38959,0.94296 0.90039,0.99414c0.00975,0.00145 0.01951,0.00275 0.0293,0.00391c0.00002,0 0.00391,0 0.00391,0c0.04088,0.00416 5.23455,0.53352 11.53125,1.50195c-6.32975,0.97278 -11.56445,1.50586 -11.56445,1.50586c-0.5108,0.05118 -0.89989,0.48079 -0.90039,0.99414v13c0.0005,0.51335 0.38959,0.94296 0.90039,0.99414c0.0091,0.00143 0.01821,0.00273 0.02734,0.00391c0.00003,0 0.00388,0 0.00391,0c0.04816,0.00582 5.13203,0.62029 11.03125,1.50391c-5.92645,0.88709 -11.0625,1.50391 -11.0625,1.50391c-0.5108,0.05118 -0.89989,0.48079 -0.90039,0.99414v13c-0.00022,0.28235 0.11893,0.55163 0.32802,0.74137c0.20909,0.18974 0.48864,0.28226 0.76964,0.25472c17.05464,-1.67838 25.62711,-3.92627 30.04883,-5.83203c2.21086,-0.95288 3.39355,-1.82354 4.06055,-2.55469c0.3335,-0.36557 0.53492,-0.69833 0.65039,-0.97852c0.11547,-0.28018 0.14258,-0.63086 0.14258,-0.63086v-13h-1l1,-0.00781c0,0 -0.02143,-0.28815 -0.10156,-0.51367c-0.08013,-0.22553 -0.21887,-0.495 -0.44531,-0.79102c-0.27348,-0.35751 -0.69499,-0.75872 -1.2832,-1.1875c0.4266,-0.31283 0.78521,-0.6145 1.03711,-0.89062c0.3335,-0.36557 0.53492,-0.69833 0.65039,-0.97852c0.11547,-0.28018 0.14258,-0.63086 0.14258,-0.63086v-13h-1l1,-0.00781c0,0 -0.02143,-0.28815 -0.10156,-0.51367c-0.08013,-0.22552 -0.21887,-0.495 -0.44531,-0.79102c-0.24181,-0.31611 -0.94993,-0.73059 -1.43164,-1.10352c0.47961,-0.34111 0.91313,-0.67599 1.18555,-0.97461c0.3335,-0.36557 0.53492,-0.69833 0.65039,-0.97852c0.11547,-0.28019 0.14258,-0.63086 0.14258,-0.63086v-13c0.00009,-0.27036 -0.10929,-0.52924 -0.3032,-0.71764c-0.19392,-0.1884 -0.45584,-0.29025 -0.72609,-0.28236zM48,5.56836v10.31445c-0.01998,0.04683 -0.07868,0.1697 -0.26953,0.37891c-0.3955,0.43354 -1.33781,1.18558 -3.37695,2.06445c-3.97817,1.71459 -12.22955,3.89281 -28.35352,5.54688v-10.97852c1.25455,-0.12282 7.87021,-0.78571 15.42969,-2.16016c4.15211,-0.75493 8.37135,-1.69719 11.73828,-2.85156c1.68346,-0.57719 3.15319,-1.20364 4.32031,-1.92187c0.19535,-0.12022 0.33162,-0.26626 0.51172,-0.39258zM41.98438,11.7168c-0.55152,0.00862 -0.99193,0.46214 -0.98437,1.01367v2c-0.0051,0.36064 0.18438,0.69608 0.49587,0.87789c0.3115,0.18181 0.69676,0.18181 1.00825,0c0.3115,-0.18181 0.50097,-0.51725 0.49587,-0.87789v-2c0.0037,-0.2703 -0.10218,-0.53059 -0.29351,-0.72155c-0.19133,-0.19097 -0.45182,-0.29634 -0.72212,-0.29212zM36.98438,13.14648c-0.55152,0.00862 -0.99193,0.46214 -0.98437,1.01367v2c-0.0051,0.36064 0.18438,0.69608 0.49587,0.87789c0.3115,0.18181 0.69676,0.18181 1.00825,0c0.3115,-0.18181 0.50097,-0.51725 0.49587,-0.87789v-2c0.0037,-0.2703 -0.10218,-0.53059 -0.29351,-0.72155c-0.19133,-0.19097 -0.45182,-0.29634 -0.72212,-0.29212zM31.98438,14.20508c-0.26522,0.00414 -0.51793,0.11347 -0.70254,0.30394c-0.18461,0.19047 -0.28599,0.44647 -0.28184,0.71169v2c-0.0051,0.36064 0.18438,0.69608 0.49587,0.87789c0.3115,0.18181 0.69676,0.18181 1.00825,0c0.3115,-0.18181 0.50097,-0.51725 0.49587,-0.87789v-2c0.00423,-0.27064 -0.10141,-0.53143 -0.2928,-0.72282c-0.19139,-0.19139 -0.45219,-0.29703 -0.72282,-0.2928zM26.98438,15.03906c-0.55152,0.00862 -0.99193,0.46214 -0.98437,1.01367v2c-0.0051,0.36064 0.18438,0.69608 0.49587,0.87789c0.3115,0.18181 0.69676,0.18181 1.00825,0c0.3115,-0.18181 0.50097,-0.51725 0.49587,-0.87789v-2c0.0037,-0.2703 -0.10218,-0.53059 -0.29351,-0.72155c-0.19133,-0.19097 -0.45182,-0.29634 -0.72212,-0.29212zM21.98438,15.72656c-0.55152,0.00862 -0.99193,0.46214 -0.98437,1.01367v2c-0.0051,0.36064 0.18438,0.69608 0.49587,0.87789c0.3115,0.18181 0.69676,0.18181 1.00825,0c0.3115,-0.18181 0.50097,-0.51725 0.49587,-0.87789v-2c0.0037,-0.2703 -0.10218,-0.53059 -0.29351,-0.72155c-0.19133,-0.19097 -0.45182,-0.29634 -0.72212,-0.29212zM46.16406,19.63281c0.86289,0.52754 1.51386,1.02661 1.70117,1.27148c0.08449,0.11045 0.0952,0.14724 0.11133,0.18359c-0.05006,0.21489 -0.2876,0.59223 -0.99609,1.07031c-0.80512,0.54328 -2.07346,1.11965 -3.62109,1.65625c-2.93788,1.01863 -6.89239,1.91862 -10.89844,2.66797c-3.37849,-0.62188 -6.48787,-1.05022 -9.36914,-1.44531c11.66624,-1.52318 18.41725,-3.30531 22.05469,-4.87305c0.43115,-0.18583 0.66076,-0.35215 1.01758,-0.53125zM48,23.86133v10.02148c-0.01998,0.04683 -0.07868,0.1697 -0.26953,0.37891c-0.3955,0.43354 -1.33781,1.18558 -3.37695,2.06445c-3.97817,1.71459 -12.22955,3.89281 -28.35352,5.54688v-10.98437c1.26255,-0.13154 8.34947,-0.88394 16.17969,-2.31445c4.27602,-0.78119 8.55621,-1.73394 11.83594,-2.87109c1.60067,-0.55498 2.93973,-1.15224 3.98438,-1.8418zM46.25781,37.63672c0.93604,0.55819 1.41248,1.01273 1.60742,1.26758c0.06762,0.0884 0.06881,0.10519 0.08984,0.14648c-0.01877,0.20051 -0.20487,0.58802 -0.97461,1.10742c-0.80512,0.54328 -2.07346,1.11965 -3.62109,1.65625c-2.94595,1.02142 -6.96503,1.90762 -10.98242,2.6582c-3.19947,-0.58828 -6.25601,-1.04404 -9.02344,-1.42969c11.63738,-1.522 18.16032,-3.31324 21.79297,-4.87891c0.41706,-0.17975 0.76401,-0.35383 1.11133,-0.52734zM48,41.86133v10.02148c-0.01998,0.04683 -0.07868,0.1697 -0.26953,0.37891c-0.3955,0.43354 -1.33781,1.18558 -3.37695,2.06445c-3.97817,1.71459 -12.22955,3.89281 -28.35352,5.54688v-10.98437c1.26255,-0.13154 8.34947,-0.88394 16.17969,-2.31445c4.27602,-0.78119 8.55621,-1.73394 11.83594,-2.87109c1.60067,-0.55498 2.93973,-1.15224 3.98438,-1.8418zM41.95508,48.69727c-0.09052,0.00545 -0.17988,0.02319 -0.26562,0.05273c-0.59537,0.19423 -1.25375,0.39478 -1.96289,0.5957c-0.34771,0.09421 -0.61789,0.36815 -0.70728,0.71713c-0.08939,0.34898 0.01581,0.71908 0.27541,0.96885c0.2596,0.24978 0.63347,0.34063 0.97875,0.23785c0.73086,-0.20708 1.41248,-0.41342 2.03711,-0.61719c0.46585,-0.14359 0.76031,-0.60214 0.69705,-1.0855c-0.06326,-0.48336 -0.4658,-0.8507 -0.95291,-0.86957c-0.03318,-0.00165 -0.06643,-0.00165 -0.09961,0zM36.04688,50.31445c-0.09002,-0.00298 -0.18002,0.00622 -0.26758,0.02734c-3.55152,0.80154 -8.09038,1.61061 -13.90625,2.35938c-0.54797,0.07011 -0.93535,0.57117 -0.86523,1.11914c0.07011,0.54797 0.57117,0.93535 1.11914,0.86523c5.86613,-0.75523 10.46727,-1.57412 14.09375,-2.39258c0.49581,-0.10375 0.83575,-0.56182 0.79142,-1.06643c-0.04433,-0.50461 -0.45894,-0.89638 -0.96525,-0.91209z"></path></g></g></svg>